<svg width="2140" height="420" viewBox="0 0 2140 420" xmlns="http://www.w3.org/2000/svg"><title>logo</title><g fill="none" fill-rule="evenodd"><ellipse stroke="#A4D426" stroke-width="10" stroke-linejoin="round" fill="#FFF" cx="208" cy="210" rx="195" ry="195"/><g stroke="#A4D426" stroke-width="10" fill="#FFF" stroke-linejoin="round"><path d="M223 218v80l60 20v-80z"/><path d="M283 238l-60-20 60-20 60 20z"/><path d="M343 218v80l-60 20v-80zM148 93v80l60 20v-80z"/><path d="M208 113l-60-20 60-20 60 20z"/><path d="M268 93v80l-60 20v-80zM73 218v80l60 20v-80z"/><path d="M133 238l-60-20 60-20 60 20z"/><path d="M193 218v80l-60 20v-80z"/></g><path d="M524.67 29.386c-7.46 0-11.635 1.73-16.966 7.06L496.2 47.95c-5.264 5.265-7.03 9.524-7.03 17.047v130.406c0 7.526 1.766 11.785 7.03 17.05l11.504 11.503c5.33 5.33 9.51 7.04 16.97 7.04h76.615l8.78-8.763V206.4h-79.082c-2.136 0-4.412-.943-5.736-2.268l-7.09-7.096c-1.55-1.55-2.377-3.548-2.377-5.472v-49.052h78.382v-24.618h-78.382V68.83c0-1.924.83-3.922 2.38-5.472l7.084-7.088c1.323-1.324 3.6-2.266 5.736-2.266h79.087V38.17l-8.784-8.782-76.62-.002zm115.016-4.833l-7.1 7.108v163.763c-.002 7.94 2.068 12.338 8.11 18.248l10.346 10.358c5.382 5.2 9.58 6.972 16.923 6.972h20.355v-22.343h-15.66c-2.354 0-4.46-1.135-5.597-2.206l-7.21-7.265c-1.456-1.374-2.343-3.396-2.346-5.35V24.554h-17.82zm74.32 62.476l-7.118 6.922v15.498h63.017c2.135 0 4.375.927 5.69 2.246l8.33 8.33c1.547 1.546 2.36 3.5 2.36 5.42v17.314h-50.32c-7.39 0-11.604 1.736-16.92 7.018l-13.012 12.934c-5.236 5.204-7.04 9.54-7.04 17.024v15.71c0 7.48 1.795 11.808 7.01 17.024l11.452 11.45c5.305 5.306 9.524 7.054 16.92 7.054h22.59c6.144 0 10.757-1.037 16.368-3.692l13.464-6.37 1.774 10.062h22.646V123.858c0-7.48-1.794-11.808-7.01-17.023L791.454 94.08c-5.305-5.306-9.525-7.054-16.92-7.054l-60.53.003zm72.29 108.846l-24.653 11.635c-1.397.66-3.088 1.038-4.795 1.038h-17.836c-2.134 0-4.375-.928-5.69-2.247l-7.046-7.046c-1.546-1.55-2.358-3.505-2.358-5.423v-12.46c0-1.922.815-3.883 2.37-5.43l8.58-8.528c1.318-1.31 3.556-2.232 5.687-2.232h45.743l-.002 30.696zM866.262 87.03c-7.396 0-11.615 1.747-16.92 7.05l-11.45 11.45c-5.217 5.216-7.01 9.544-7.01 17.024v11.643c0 7.946 3.216 13.18 10.163 16.72l61.226 31.18c2.32 1.18 3.756 3.53 3.756 5.787v5.958c.003 1.918-.806 3.874-2.356 5.423l-7.036 7.04c-1.316 1.315-3.556 2.243-5.69 2.243h-60.06v15.497l7.117 6.923h54.136c8.93 0 16.38-3.078 21.39-8.087l8.565-8.564c6.573-6.575 8.86-12.067 8.86-19.518v-8.73c0-9.517-5.003-17.642-15.55-23.016l-55.83-28.293c-2.322-1.176-3.765-3.526-3.765-5.787v-4.668c0-1.904.79-3.842 2.304-5.397l6.986-7.163c1.31-1.345 3.568-2.298 5.72-2.298h53.83V93.95l-7.117-6.924-51.268.003zm97.972-33.075V87H949.18l-7.04 6.924v15.5h22.094v86.152c0 7.48 1.794 11.808 7.007 17.024l11.452 11.45c5.308 5.173 9.444 6.953 16.917 6.953h13.79l7.164-6.83V208.68h-16.324c-2.137 0-4.377-.927-5.693-2.246l-7.036-7.042c-1.546-1.55-2.355-3.505-2.355-5.423v-84.543h31.415v-22.42h-31.415V53.96l-24.92-.005zm78.14-16.92v28.567h28.818V37.035h-28.817zm1.95 49.965v144h24.92V87h-24.92zm83.52.03c-7.395 0-11.614 1.747-16.92 7.052l-11.45 11.45c-5.216 5.216-7.01 9.545-7.01 17.024v72.893c0 7.48 1.794 11.807 7.01 17.023l11.45 11.45c5.306 5.306 9.525 7.054 16.92 7.054h44.385c7.394 0 11.614-1.748 16.92-7.053l10.116-10.118-16.738-16.738-9.248 9.24c-1.32 1.315-3.56 2.242-5.697 2.242h-35.11c-2.137 0-4.377-.927-5.694-2.246l-7.04-7.042c-1.546-1.55-2.355-3.505-2.355-5.423v-69.682c0-1.918.81-3.874 2.356-5.423l7.04-7.04c1.316-1.315 3.556-2.243 5.69-2.243h35.116c2.137 0 4.378.928 5.697 2.247l9.242 9.238 16.704-16.704-10.08-10.146c-5.295-5.328-9.534-7.056-16.924-7.056l-44.38-.003zm180.217-57.644c-7.46 0-11.62 1.745-16.962 7.056l-23.786 23.642c-5.285 5.253-7.033 9.532-7.033 17.052v106.13c0 7.52 1.747 11.8 7.032 17.053l23.786 23.64c5.342 5.312 9.5 7.04 16.963 7.04h51.01c7.46 0 11.62-1.728 16.962-7.04l22.688-22.55-18.676-18.676-21.557 21.41c-1.32 1.31-3.583 2.258-5.73 2.258h-38.39c-2.145 0-4.408-.948-5.727-2.258l-19.365-19.233c-1.564-1.55-2.388-3.558-2.388-5.476v-98.47c0-1.92.824-3.93 2.388-5.48l19.35-19.222c1.32-1.31 3.583-2.258 5.73-2.258h38.398c2.145 0 4.41.947 5.728 2.258l21.566 21.413 18.625-18.73-22.64-22.503c-5.344-5.31-9.502-7.056-16.964-7.056h-51.005zm125.97-.003l-8.784 8.78v192.83h26.64V29.38l-17.856.003zm132.203.003c-9.233 0-13.83 1.903-20.836 8.91l-16.114 16.117c-6.434 6.434-8.63 11.736-8.63 21.508v16.912c0 10.328 3.58 16.134 12.005 20.442l88.465 45.205c3.61 1.84 5.288 4.676 5.288 7.878v17.214c0 2.854-.923 5.1-3.426 7.603l-12.053 12.053c-1.736 1.737-5.143 3.15-8.28 3.15h-81.995v17.108l7.735 7.508h74.26c11.4 0 20.544-3.758 27.13-10.345l12.053-12.054c8.35-8.35 11.238-15.29 11.238-25.02v-17.733c0-12.54-6.096-22.438-19.59-29.313l-81.125-41.123c-3.062-1.553-5.043-4.48-5.043-7.36V77.105c0-2.845.904-5.083 3.364-7.606l11.952-12.27c1.72-1.764 5.132-3.204 8.285-3.204h73.285v-17.11l-7.736-7.526-70.23-.002zm119.265 24.57V87h-15.054l-7.042 6.924v15.5h22.096v86.152c0 7.48 1.794 11.808 7.007 17.024l11.45 11.45c5.308 5.173 9.444 6.953 16.918 6.953h13.79l7.165-6.83V208.68h-16.324c-2.137 0-4.378-.927-5.694-2.246l-7.036-7.042c-1.546-1.55-2.356-3.505-2.356-5.423v-84.543h31.415v-22.42h-31.415V53.96l-24.92-.005zm86.127 33.073l-7.117 6.922v15.498h63.017c2.135 0 4.375.927 5.69 2.246l8.33 8.33c1.547 1.546 2.36 3.5 2.36 5.42v17.314h-50.32c-7.39 0-11.604 1.736-16.92 7.018l-13.012 12.934c-5.236 5.204-7.04 9.54-7.04 17.024v15.71c0 7.48 1.795 11.808 7.01 17.024l11.452 11.45c5.305 5.306 9.524 7.054 16.92 7.054h22.59c6.144 0 10.757-1.037 16.368-3.692l13.464-6.37 1.774 10.062h22.646V123.858c0-7.48-1.794-11.808-7.01-17.023l-12.752-12.756c-5.305-5.306-9.525-7.054-16.92-7.054l-60.53.003zm72.29 108.846l-24.652 11.635c-1.397.66-3.088 1.038-4.795 1.038h-17.836c-2.134 0-4.375-.928-5.69-2.247l-7.046-7.046c-1.546-1.55-2.358-3.505-2.358-5.423v-12.46c0-1.922.815-3.883 2.37-5.43l8.58-8.528c1.318-1.31 3.556-2.232 5.687-2.232h45.743l-.002 30.696zm79.59-108.847c-7.396 0-11.615 1.747-16.92 7.052l-11.45 11.45c-5.217 5.216-7.01 9.545-7.01 17.024v72.893c0 7.48 1.793 11.807 7.01 17.023l11.45 11.45c5.305 5.306 9.524 7.054 16.92 7.054h44.384c7.394 0 11.614-1.748 16.92-7.053l10.116-10.118-16.74-16.738-9.246 9.24c-1.32 1.315-3.56 2.242-5.697 2.242h-35.11c-2.137 0-4.378-.927-5.694-2.246l-7.04-7.042c-1.546-1.55-2.355-3.505-2.355-5.423v-69.682c0-1.918.81-3.874 2.356-5.423l7.04-7.04c1.315-1.315 3.556-2.243 5.69-2.243h35.116c2.137 0 4.378.928 5.697 2.247l9.242 9.238 16.704-16.704-10.08-10.146c-5.295-5.328-9.534-7.056-16.924-7.056l-44.38-.003zm97.68-62.44l-7.1 7.108v199.305h24.92v-56.457l7.09-10.543 62.56 67h12.312l11.255-10.987-69.52-71.89 64.106-49.73-11.368-11.32h-12.2l-64.235 50.073V24.59h-17.82zM499.594 290.2c-3.39 0-5.13.72-7.63 3.22l-5.974 5.974c-2.376 2.378-3.16 4.27-3.16 7.778V319h-8.812l-2.713 2.667v5.91h11.526V391h9.623v-63.422h14.954v-8.58h-14.954v-11.17c0-1.245.55-2.574 1.575-3.598l3.96-3.96c.852-.853 2.395-1.49 3.803-1.49h7.05v-5.87l-2.736-2.71h-6.51zm33.983 28.814c-3.39 0-5.13.72-7.63 3.222l-5.974 5.973c-2.377 2.376-3.16 4.268-3.16 7.776v38.025c0 3.51.783 5.4 3.16 7.778l5.973 5.973c2.5 2.503 4.24 3.223 7.63 3.223h23.153c3.39 0 5.13-.72 7.63-3.222l5.974-5.972c2.377-2.377 3.16-4.27 3.16-7.777v-38.024c0-3.508-.783-5.4-3.16-7.777l-5.973-5.974c-2.5-2.502-4.24-3.222-7.63-3.222h-23.152zm28.72 14.03c1.023 1.023 1.574 2.352 1.574 3.597v36.714c0 1.246-.55 2.575-1.575 3.6l-3.958 3.96c-.854.85-2.395 1.49-3.803 1.49h-18.772c-1.408 0-2.95-.64-3.802-1.49l-3.955-3.958c-1.024-1.024-1.576-2.353-1.576-3.6v-36.715c-.002-1.244.55-2.573 1.573-3.597l3.958-3.96c.853-.85 2.394-1.49 3.802-1.49h18.77c1.407 0 2.948.64 3.8 1.49l3.962 3.96zm55.73-14.03c-2.766 0-4.745-.064-6.798 1.504l-14.217 10.857-2.18-12.36h-7.618v71.97h9.622V341.72l18.134-13.196c1.215-.883 2.71-.91 3.522-.91h3.397v-8.598l-3.863-.002zm66.548-28.818l-31.598 98.054 5.916 2.75h4.157l10.448-33.11h41.53l10.43 33.11h4.16l5.914-2.75-31.58-98.054h-19.376zm27.46 58.194h-35.544l15.312-48.683h4.917l15.317 48.683zm146.72-58.194l-21.918 91.293h-4.68l-20.602-91.294h-19.394l-20.657 91.293h-4.73l-21.814-91.294h-4.13l-5.934 2.766 24.792 98.035h18.873l21.61-91.29h3.453l21.535 91.29h18.874l24.793-98.035-5.933-2.766h-4.136zm39.865 0c-4.283 0-6.18.784-9.522 4.127l-8.313 8.313c-2.968 2.968-3.944 5.326-3.944 9.965v8.724c0 4.74 1.53 7.22 5.248 9.12l45.68 23.32c2.342 1.193 3.628 3.324 3.628 5.395v8.973c0 1.783-.7 3.477-2.276 5.053l-6.218 6.218c-1.136 1.136-3.444 2.093-5.495 2.093h-40.563v6.59l3 2.913h37.563c5.402 0 9.643-1.747 12.77-4.873l6.217-6.218c3.957-3.958 5.29-7.162 5.29-11.777v-9.147c0-5.88-2.825-10.466-9.16-13.693l-41.844-21.21c-2.16-1.097-3.55-3.26-3.55-5.226v-5.646c0-1.77.682-3.453 2.228-5.04l6.164-6.328c1.128-1.157 3.45-2.137 5.515-2.137h36.07v-6.59l-3-2.918H898.62z" fill="#4A4A4A"/></g></svg>