<svg width="2200" height="500" viewBox="0 0 2200 500" xmlns="http://www.w3.org/2000/svg"><title>logo</title><g fill="none" fill-rule="evenodd"><ellipse stroke="#A4D426" stroke-width="10" stroke-linejoin="round" fill="#FFF" cx="238" cy="251" rx="195" ry="195"/><g stroke="#A4D426" stroke-width="10" fill="#FFF" stroke-linejoin="round"><path d="M253 259v80l60 20v-80z"/><path d="M313 279l-60-20 60-20 60 20z"/><path d="M373 259v80l-60 20v-80zM178 134v80l60 20v-80z"/><path d="M238 154l-60-20 60-20 60 20z"/><path d="M298 134v80l-60 20v-80zM103 259v80l60 20v-80z"/><path d="M163 279l-60-20 60-20 60 20z"/><path d="M223 259v80l-60 20v-80z"/></g><path d="M554.6698 70.3856c-7.4592 0-11.6352 1.731-16.966 7.0618L526.201 88.95c-5.2647 5.2647-7.03 9.5242-7.03 17.0468v130.4064c0 7.5254 1.7653 11.785 7.03 17.0496l11.5027 11.5027c5.331 5.331 9.5097 7.0416 16.969 7.0416h76.6166l8.781-8.7637V247.399h-79.0818c-2.137 0-4.4122-.9417-5.737-2.2665l-7.0905-7.0963c-1.5495-1.5495-2.376-3.5482-2.376-5.472V183.512h78.382v-24.6182h-78.382V109.83c0-1.9238.8294-3.9225 2.3788-5.472l7.0848-7.0876c1.3248-1.3248 3.6-2.2666 5.737-2.2666h79.0877V79.1696l-8.784-8.781-76.6195-.003zm115.016-4.8326l-7.0992 7.1078v163.7626c-.0028 7.94 2.068 12.338 8.11 18.2476l10.345 10.3565c5.3828 5.2013 9.579 6.9725 16.923 6.9725h20.3558v-22.343H702.659c-2.353 0-4.4583-1.1348-5.596-2.206l-7.2085-7.2664c-1.4573-1.3737-2.3443-3.3955-2.3472-5.348V65.553h-17.8215zm74.3188 62.4758l-7.1164 6.9235v15.4973h63.0172c2.134 0 4.3748.9274 5.691 2.2464l8.329 8.329c1.5464 1.5465 2.3586 3.502 2.3586 5.42v17.3147h-50.3194c-7.39 0-11.6035 1.7366-16.92 7.0185l-13.0118 12.934c-5.2358 5.2043-7.0387 9.5387-7.0387 17.0238v15.7104c0 7.4794 1.7943 11.808 7.01 17.0237l11.451 11.451c5.3048 5.305 9.524 7.053 16.92 7.053h22.5906c6.143 0 10.7568-1.0367 16.367-3.692l13.464-6.3706 1.774 10.0627h22.6456V164.8583c0-7.4793-1.7943-11.808-7.01-17.0236l-12.7526-12.7556c-5.305-5.305-9.5242-7.053-16.92-7.053l-60.529.0028zm72.291 108.8467l-24.653 11.6352c-1.3967.6595-3.0872 1.0368-4.795 1.0368h-17.836c-2.134 0-4.3746-.9273-5.6908-2.2464l-7.0445-7.0472c-1.5465-1.5495-2.3587-3.505-2.3587-5.423V222.369c0-1.921.815-3.8823 2.3702-5.4288l8.5796-8.5277c1.319-1.3104 3.5568-2.232 5.688-2.232h45.743l-.003 30.695zm79.9664-108.8467c-7.3958 0-11.615 1.7482-16.92 7.0502l-11.451 11.451c-5.2155 5.2156-7.0098 9.5442-7.0098 17.0236v11.6438c0 7.946 3.217 13.179 10.1635 16.7184l61.226 31.1818c2.3184 1.1808 3.7555 3.528 3.7555 5.786v5.9586c.0028 1.918-.8064 3.8736-2.356 5.423l-7.0357 7.0388c-1.3162 1.3162-3.5568 2.2435-5.691 2.2435h-60.0594v15.4973l7.1166 6.9235h54.1353c8.9308 0 16.3814-3.0787 21.3897-8.087l8.565-8.565c6.5723-6.5752 8.859-12.0673 8.859-19.518v-8.7292c0-9.5183-5.0026-17.6428-15.549-23.0168l-55.8318-28.2932c-2.3214-1.175-3.7643-3.525-3.7643-5.786v-4.6684c0-1.9037.7892-3.842 2.304-5.397l6.987-7.1626c1.3103-1.345 3.5682-2.2983 5.7196-2.2983h53.83v-15.4973l-7.1164-6.9235-51.267.0028zm97.9722-33.074V128h-15.0537l-7.0416 6.9235v15.5002h22.0952v86.1523c0 7.4794 1.7943 11.808 7.007 17.0237l11.451 11.451c5.3078 5.1723 9.4435 6.9522 16.917 6.9522h13.7895l7.1655-6.8315V249.68h-16.324c-2.1368 0-4.3775-.9274-5.6936-2.2464l-7.036-7.0416c-1.5464-1.5494-2.3557-3.505-2.3557-5.423v-84.5424h31.415v-22.4208h-31.415V94.9606l-24.9208-.0057zm78.1406-16.92v28.5668h28.8173V78.035h-28.8172zM1074.3246 128v144h24.9206V128h-24.9206zm83.5204.0288c-7.396 0-11.615 1.7482-16.92 7.053l-11.451 11.451c-5.2156 5.2157-7.0098 9.5443-7.0098 17.0237v72.8928c0 7.4793 1.7942 11.808 7.01 17.0237l11.4508 11.4508c5.305 5.305 9.524 7.0532 16.92 7.0532h44.3836c7.396 0 11.615-1.7482 16.92-7.0532l10.1175-10.1174-16.7385-16.7386-9.2477 9.239c-1.319 1.3162-3.5596 2.2436-5.6966 2.2436h-35.11c-2.137 0-4.3777-.9274-5.6938-2.2464l-7.0388-7.0416c-1.5465-1.5494-2.3558-3.505-2.3558-5.423v-69.6816c0-1.918.8093-3.8736 2.3558-5.423l7.0388-7.0388c1.316-1.3162 3.5568-2.2435 5.691-2.2435h35.1157c2.137 0 4.3777.9273 5.6967 2.2464l9.242 9.239 16.704-16.704-10.08-10.1463c-5.2935-5.328-9.533-7.056-16.923-7.056l-44.3807-.003zm180.216-57.6432c-7.4622 0-11.621 1.7453-16.9633 7.056l-23.786 23.642c-5.2847 5.253-7.033 9.5327-7.033 17.0524v106.131c0 7.5196 1.7483 11.7992 7.033 17.0524l23.786 23.642c5.3424 5.3106 9.501 7.0386 16.9632 7.0386h51.0076c7.462 0 11.6208-1.728 16.9632-7.0387l22.6886-22.5504-18.6768-18.677-21.5568 21.41c-1.319 1.3104-3.5827 2.258-5.7283 2.258h-38.3904c-2.1455 0-4.4092-.9476-5.7282-2.258l-19.365-19.2326c-1.564-1.5524-2.3877-3.5597-2.3877-5.4778v-98.47c0-1.921.8238-3.9284 2.3877-5.4807l19.3507-19.2212c1.319-1.3104 3.5827-2.258 5.7283-2.258h38.399c2.1456 0 4.4093.9476 5.7284 2.258l21.5655 21.4128 18.625-18.7287-22.6426-22.5044c-5.3425-5.3107-9.5012-7.056-16.9633-7.056h-51.0048zm125.9688-.003l-8.784 8.7812v192.8304h26.64V70.3798l-17.856.003zm132.2036.003c-9.2333 0-13.8298 1.9037-20.8368 8.9107l-16.1136 16.1165c-6.434 6.434-8.6313 11.736-8.6313 21.5078v16.9114c0 10.3277 3.5827 16.1338 12.0067 20.4422l88.465 45.2045c3.6086 1.8403 5.2876 4.677 5.2876 7.8797v17.2138c0 2.854-.9245 5.1004-3.4272 7.6032l-12.0528 12.0528c-1.7366 1.7366-5.1437 3.1507-8.28 3.1507h-81.9965v17.107l7.7357 7.5083h74.2608c11.399 0 20.543-3.7584 27.1296-10.345l12.0528-12.0528c8.349-8.349 11.2378-15.29 11.2378-25.0215v-17.732c0-12.5396-6.097-22.4382-19.5898-29.3127l-81.1267-41.1236c-3.0615-1.5523-5.043-4.4784-5.043-7.3584v-10.944c0-2.8454.9044-5.0832 3.364-7.606l11.952-12.2688c1.7193-1.7655 5.132-3.2055 8.2857-3.2055h73.2845v-17.11l-7.7358-7.5255-70.2288-.003zm119.2643 24.5693V128h-15.0538l-7.0417 6.9235v15.5002h22.0954v86.1523c0 7.4794 1.7942 11.808 7.007 17.0237l11.451 11.451c5.3077 5.1723 9.4434 6.9522 16.917 6.9522h13.7895l7.1654-6.8315V249.68h-16.3238c-2.137 0-4.3776-.9274-5.6938-2.2464l-7.0358-7.0416c-1.5466-1.5494-2.356-3.505-2.356-5.423v-84.5424h31.4152v-22.4208h-31.415V94.9606l-24.9207-.0057zm86.127 33.0738l-7.1165 6.9235v15.4973h63.0173c2.134 0 4.3747.9274 5.6908 2.2464l8.329 8.329c1.5466 1.5465 2.3587 3.502 2.3587 5.42v17.3147h-50.3193c-7.39 0-11.6036 1.7366-16.92 7.0185l-13.012 12.934c-5.2357 5.2043-7.0386 9.5387-7.0386 17.0238v15.7104c0 7.4794 1.7943 11.808 7.01 17.0237l11.451 11.451c5.305 5.305 9.524 7.053 16.92 7.053h22.5906c6.143 0 10.7568-1.0367 16.367-3.692l13.464-6.3706 1.774 10.0627h22.6456V164.8583c0-7.4793-1.7943-11.808-7.01-17.0236l-12.7526-12.7556c-5.305-5.305-9.524-7.053-16.92-7.053l-60.529.0028zm72.2908 108.8467l-24.6528 11.6352c-1.3968.6595-3.0873 1.0368-4.7952 1.0368h-17.8358c-2.134 0-4.3747-.9273-5.691-2.2464l-7.0444-7.0472c-1.5465-1.5495-2.3587-3.505-2.3587-5.423V222.369c0-1.921.815-3.8823 2.3703-5.4288l8.5794-8.5277c1.319-1.3104 3.5568-2.232 5.688-2.232h45.743l-.003 30.695zm79.5894-108.8467c-7.396 0-11.615 1.7482-16.92 7.053l-11.451 11.451c-5.2156 5.2157-7.01 9.5443-7.01 17.0237v72.8928c0 7.4793 1.7944 11.808 7.01 17.0237l11.451 11.4508c5.305 5.305 9.524 7.0532 16.92 7.0532h44.3836c7.3958 0 11.615-1.7482 16.92-7.0532l10.1174-10.1174-16.7385-16.7386-9.2477 9.239c-1.319 1.3162-3.5597 2.2436-5.6966 2.2436h-35.11c-2.137 0-4.3777-.9274-5.694-2.2464l-7.0386-7.0416c-1.5466-1.5494-2.3558-3.505-2.3558-5.423v-69.6816c0-1.918.8092-3.8736 2.3558-5.423l7.0387-7.0388c1.3162-1.3162 3.5568-2.2435 5.691-2.2435h35.1157c2.137 0 4.3776.9273 5.6967 2.2464l9.242 9.239 16.704-16.704-10.08-10.1463c-5.2935-5.328-9.533-7.056-16.923-7.056l-44.3808-.003zm97.6786-62.4384l-7.0992 7.1078V272.003h24.9206V215.546l7.0906-10.5436 62.5593 67.0003h12.312l11.255-10.9873-69.5203-71.8906 64.106-49.7288-11.3675-11.3213h-12.1997l-64.2355 50.0744V65.5904h-17.8214zM529.595 331.2c-3.3912 0-5.1292.72-7.6305 3.2213l-5.973 5.973c-2.3776 2.3775-3.161 4.2697-3.161 7.7775v11.8268h-8.8127l-2.713 2.6683v5.911h11.5258v63.4206h9.622V368.578h14.9544v-8.5794h-14.9544v-11.17c0-1.2457.5516-2.5748 1.5754-3.5987l3.96-3.96c.8525-.8526 2.3947-1.4905 3.803-1.4905h7.0503v-5.871l-2.7375-2.7085h-6.5088zm33.9827 28.8144c-3.3912 0-5.1293.72-7.6305 3.2213l-5.9732 5.973c-2.3774 2.3775-3.1608 4.2697-3.1608 7.7775v38.0247c0 3.5077.7834 5.4 3.1608 7.7773l5.9732 5.973c2.5012 2.5014 4.2393 3.2214 7.6305 3.2214H586.73c3.3913 0 5.1293-.72 7.6306-3.2213l5.973-5.973c2.3776-2.3775 3.161-4.2697 3.161-7.7775V376.986c0-3.5078-.7834-5.4-3.161-7.7774l-5.973-5.973c-2.5013-2.5014-4.2408-3.2214-7.632-3.2214h-23.151zm28.7194 14.0285c1.024 1.0237 1.5754 2.3528 1.5754 3.5984v36.7128c0 1.2456-.5515 2.5748-1.5753 3.5986l-3.9585 3.96c-.8525.8525-2.3932 1.4918-3.8016 1.4918h-18.772c-1.4082 0-2.949-.6393-3.8015-1.4918l-3.9557-3.957c-1.0238-1.024-1.5753-2.353-1.5753-3.5987v-36.7156c-.003-1.2456.5486-2.5747 1.5724-3.5985l3.9585-3.9587c.8525-.8525 2.3933-1.4918 3.8016-1.4918h18.769c1.4084 0 2.9492.6393 3.8016 1.4918l3.9615 3.9586zm55.7297-14.0286c-2.7648 0-4.7434-.0648-6.7968 1.5034l-14.2173 10.8576-2.1787-12.3596h-7.619v71.9698h9.622v-49.2653l18.134-13.196c1.214-.883 2.71-.9117 3.5208-.9117h3.397v-8.5968l-3.862-.0014zm66.5497-28.8187l-31.598 98.054L688.894 432h4.1573l10.4472-33.1114h41.5296L755.4595 432h4.1587l5.9142-2.7504-31.5806-98.054h-19.3752zm27.4608 58.1947h-35.545l15.3115-48.6835h4.9176l15.316 48.6834zm146.7188-58.1947l-21.9182 91.293h-4.68l-20.602-91.293h-19.394l-20.6568 91.293h-4.729l-21.8145-91.293h-4.1328l-5.9328 2.7662 24.7924 98.035h18.8726l21.61-91.29h3.4518l21.5352 91.29h18.874l24.7925-98.035-5.9328-2.7663h-4.1357zm39.865 0c-4.284 0-6.1804.7848-9.5226 4.127l-8.313 8.313c-2.968 2.968-3.9443 5.3267-3.9443 9.965v8.7235c0 4.7404 1.528 7.22 5.2475 9.121l45.6797 23.3178c2.3414 1.1938 3.6273 3.325 3.6273 5.3957v8.974c0 1.7828-.6998 3.4777-2.2752 5.053l-6.218 6.218c-1.136 1.136-3.4444 2.0937-5.495 2.0937H906.844v6.5895l2.9995 2.913h37.564c5.4013 0 9.642-1.7467 12.7683-4.873l6.218-6.218c3.957-3.957 5.289-7.161 5.289-11.7762v-9.147c0-5.8808-2.8238-10.4658-9.1583-13.6928l-41.845-21.2112c-2.16-1.096-3.5496-3.2588-3.5496-5.2244v-5.6462c0-1.7726.6825-3.4546 2.2276-5.04l6.1646-6.3288c1.1276-1.1578 3.4488-2.137 5.5152-2.137h36.0692v-6.5894l-2.9996-2.919-35.486-.0013z" fill="#4A4A4A"/></g></svg>