<svg width="2310" height="450" viewBox="0 0 2310 450" xmlns="http://www.w3.org/2000/svg" xmlns:xlink="http://www.w3.org/1999/xlink"><title>Elastic CI Stack for AWS</title><defs><path d="M249.06345 248.77348h247.7459L372.90366 1.00453 249.0307 248.708l-.1746-.3491-.03274.06548L124.6061.03245.2143 248.77348h248.4345l-124.1845 248.32644h248.78367l-124.1845-248.32644z" id="a"/><path d="M216.48976 217.2171H431.8343L324.13355 1.702 216.4613 217.16014l-.15176-.30366-.02847.05697L108.30954.85647.18626 217.2171h215.94306l-107.94306 216h216.24656l-107.94306-216z" id="c"/></defs><g fill="none" fill-rule="evenodd"><g transform="translate(-20 -37)"><mask id="b" fill="#fff"><use xlink:href="#a"/></mask><ellipse stroke="#A4D426" stroke-width="10" stroke-linejoin="round" fill="#FFF" mask="url(#b)" cx="248.98622" cy="249.9895" rx="209.18422" ry="209.14837"/></g><g transform="translate(12 -6)"><mask id="d" fill="#fff"><use xlink:href="#c"/></mask><ellipse stroke="#A4D426" stroke-width="10" stroke-linejoin="round" fill="#FFF" mask="url(#d)" cx="216.42263" cy="218.27481" rx="181.82612" ry="181.92202"/></g><g stroke-width="10" stroke="#4A4A4A" stroke-linejoin="round"><path d="M243 226v80l60 20v-80z"/><path d="M303 246l-60-20 60-20 60 20z"/><path d="M363 226v80l-60 20v-80zM168 101v80l60 20v-80z"/><path d="M228 121l-60-20 60-20 60 20z"/><path d="M288 101v80l-60 20v-80zM93 226v80l60 20v-80z"/><path d="M153 246l-60-20 60-20 60 20z"/><path d="M213 226v80l-60 20v-80z"/></g><path d="M588.031 40.985c-7.77 0-12.12 1.803-17.673 7.356l-11.982 11.982c-5.484 5.484-7.323 9.921-7.323 17.757v135.84c0 7.839 1.839 12.276 7.323 17.76l11.982 11.982c5.553 5.553 9.906 7.335 17.676 7.335h79.809l9.147-9.129v-16.494h-82.377c-2.226 0-4.596-.981-5.976-2.361l-7.386-7.392c-1.614-1.614-2.475-3.696-2.475-5.7v-51.096h81.648v-25.644h-81.648V82.073c0-2.004.864-4.086 2.478-5.7l7.38-7.383c1.38-1.38 3.75-2.361 5.976-2.361h82.383V50.135l-9.15-9.147-79.812-.003zm119.80842-5.034l-7.395 7.404v170.586c-.003 8.271 2.154 12.852 8.448 19.008l10.776 10.788c5.607 5.418 9.978 7.263 17.628 7.263h21.204v-23.274h-16.314c-2.451 0-4.644-1.182-5.829-2.298l-7.509-7.569c-1.518-1.431-2.442-3.537-2.445-5.571V35.951h-18.564zm77.41542 65.079l-7.413 7.212v16.143h65.643c2.223 0 4.557.966 5.928 2.34l8.676 8.676c1.611 1.611 2.457 3.648 2.457 5.646v18.036h-52.416c-7.698 0-12.087 1.809-17.625 7.311l-13.554 13.473c-5.454 5.421-7.332 9.936-7.332 17.733v16.365c0 7.791 1.869 12.3 7.302 17.733l11.928 11.928c5.526 5.526 9.921 7.347 17.625 7.347h23.532c6.399 0 11.205-1.08 17.049-3.846l14.025-6.636 1.848 10.482h23.589V139.394c0-7.791-1.869-12.3-7.302-17.733l-13.284-13.287c-5.526-5.526-9.921-7.347-17.625-7.347l-63.051.003zm75.303 113.382l-25.68 12.12c-1.455.687-3.216 1.08-4.995 1.08h-18.579c-2.223 0-4.557-.966-5.928-2.34l-7.338-7.341c-1.611-1.614-2.457-3.651-2.457-5.649v-12.981c0-2.001.849-4.044 2.469-5.655l8.937-8.883c1.374-1.365 3.705-2.325 5.925-2.325h47.649l-.003 31.974zm83.29842-113.382c-7.704 0-12.099 1.821-17.625 7.344l-11.928 11.928c-5.433 5.433-7.302 9.942-7.302 17.733v12.129c0 8.277 3.351 13.728 10.587 17.415l63.777 32.481c2.415 1.23 3.912 3.675 3.912 6.027v6.207c.003 1.998-.84 4.035-2.454 5.649l-7.329 7.332c-1.371 1.371-3.705 2.337-5.928 2.337h-62.562v16.143l7.413 7.212h56.391c9.303 0 17.064-3.207 22.281-8.424l8.922-8.922c6.846-6.849 9.228-12.57 9.228-20.331v-9.093c0-9.915-5.211-18.378-16.197-23.976l-58.158-29.472c-2.418-1.224-3.921-3.672-3.921-6.027v-4.863c0-1.983.822-4.002 2.4-5.622l7.278-7.461c1.365-1.401 3.717-2.394 5.958-2.394h56.073v-16.143l-7.413-7.212-53.403.003zm102.05442-34.452V101h-15.681l-7.335 7.212v16.146h23.016V214.1c0 7.791 1.869 12.3 7.299 17.733l11.928 11.928c5.529 5.388 9.837 7.242 17.622 7.242h14.364l7.464-7.116V227.75h-17.004c-2.226 0-4.56-.966-5.931-2.34l-7.329-7.335c-1.611-1.614-2.454-3.651-2.454-5.649v-88.065h32.724v-23.355h-32.724V66.584l-25.959-.006zm81.3964-17.625V78.71h30.018V48.953h-30.018zm2.031 52.047v150h25.959V101h-25.959zm87.00043.03c-7.704 0-12.099 1.821-17.62498 7.347l-11.928 11.928c-5.433 5.433-7.302 9.942-7.302 17.733v75.93c0 7.791 1.869 12.3 7.302 17.733l11.928 11.928c5.526 5.526 9.921 7.347 17.625 7.347h46.233c7.704 0 12.099-1.821 17.625-7.347l10.539-10.539-17.436-17.436-9.633 9.624c-1.374 1.371-3.708 2.337-5.934 2.337h-36.573c-2.226 0-4.56-.966-5.931-2.34l-7.332-7.335c-1.611-1.614-2.454-3.651-2.454-5.649v-72.585c0-1.998.843-4.035 2.454-5.649l7.332-7.332c1.371-1.371 3.705-2.337 5.928-2.337h36.579c2.226 0 4.56.966 5.934 2.34l9.627 9.624 17.4-17.4-10.5-10.569c-5.51402-5.55-9.93002-7.35-17.62802-7.35l-46.23-.003zm204.91243-60.045c-7.773 0-12.105 1.818-17.67 7.35l-24.777 24.627c-5.505 5.472-7.326 9.93-7.326 17.763v110.553c0 7.833 1.821 12.291 7.326 17.763l24.777 24.627c5.565 5.532 9.897 7.332 17.67 7.332h53.133c7.773 0 12.105-1.8 17.67-7.332l23.634-23.49-19.455-19.455-22.455 22.302c-1.374 1.365-3.732 2.352-5.967 2.352h-39.99c-2.235 0-4.593-.987-5.967-2.352l-20.172-20.034c-1.629-1.617-2.487-3.708-2.487-5.706V94.712c0-2.001.858-4.092 2.487-5.709l20.157-20.022c1.374-1.365 3.732-2.352 5.967-2.352h39.999c2.235 0 4.593.987 5.967 2.352l22.464 22.305 19.401-19.509-23.586-23.442c-5.565-5.532-9.897-7.35-17.67-7.35h-53.13zm132.06942-.003l-9.15 9.147v200.865h27.75V40.979l-18.6.003zm155.7514.003c-9.61798 0-14.406 1.983-21.705 9.282l-16.785 16.788c-6.70198 6.702-8.991 12.225-8.991 22.404v17.616c0 10.758 3.732 16.806 12.507 21.294l92.151 47.088c3.759 1.917 5.508 4.872 5.508 8.208v17.931c0 2.973-.963 5.313-3.57 7.92l-12.555 12.555c-1.809 1.809-5.358 3.282-8.625 3.282h-85.413v17.82l8.058 7.821h77.355c11.874 0 21.399-3.915 28.26-10.776l12.555-12.555c8.697-8.697 11.706-15.927 11.706-26.064v-18.471c0-13.062-6.351-23.373-20.406-30.534l-84.507-42.837c-3.189-1.61698-5.253-4.665-5.253-7.665v-11.4c0-2.964.942-5.295 3.504-7.923l12.45-12.78c1.791-1.839 5.346-3.339 8.631-3.339h76.338V48.827l-8.058-7.839-73.155-.003zm125.08544 25.593V101h-15.681l-7.335 7.212v16.146h23.016V214.1c0 7.791 1.869 12.3 7.299 17.733l11.928 11.928c5.52898 5.388 9.83698 7.242 17.62198 7.242h14.364l7.464-7.116V227.75h-17.004c-2.226 0-4.56-.966-5.931-2.34l-7.329-7.335c-1.611-1.614-2.454-3.651-2.454-5.649v-88.065h32.724v-23.355h-32.724V66.584l-25.959-.006zm90.5674 34.452l-7.413 7.212v16.143h65.643c2.223 0 4.557.966 5.928 2.34l8.676 8.676c1.611 1.611 2.457 3.648 2.457 5.646v18.036h-52.416c-7.698 0-12.087 1.809-17.625 7.311l-13.554 13.473c-5.454 5.421-7.332 9.936-7.332 17.733v16.365c0 7.791 1.869 12.3 7.302 17.733l11.928 11.928c5.526 5.526 9.921 7.347 17.625 7.347h23.532c6.399 0 11.205-1.08 17.049-3.846l14.025-6.636 1.848 10.482h23.589V139.394c0-7.791-1.869-12.3-7.302-17.733l-13.284-13.287c-5.526-5.526-9.921-7.347-17.625-7.347l-63.051.003zm75.303 113.382l-25.68 12.12c-1.455.687-3.216 1.08-4.995 1.08h-18.579c-2.223 0-4.557-.966-5.928-2.34l-7.338-7.341c-1.611-1.614-2.457-3.651-2.457-5.649v-12.981c0-2.001.849-4.044 2.469-5.655l8.937-8.883c1.374-1.365 3.705-2.325 5.925-2.325h47.649l-.003 31.974zm83.75742-113.382c-7.704 0-12.099 1.821-17.625 7.347l-11.928 11.928c-5.433 5.433-7.302 9.942-7.302 17.733v75.93c0 7.791 1.869 12.3 7.302 17.733l11.928 11.928c5.526 5.526 9.921 7.347 17.625 7.347h46.233c7.704 0 12.099-1.821 17.625-7.347l10.539-10.539-17.436-17.436-9.633 9.624c-1.374 1.371-3.708 2.337-5.934 2.337h-36.573c-2.226 0-4.56-.966-5.931-2.34l-7.332-7.335c-1.611-1.614-2.454-3.651-2.454-5.649v-72.585c0-1.998.843-4.035 2.454-5.649l7.332-7.332c1.371-1.371 3.705-2.337 5.928-2.337h36.579c2.226 0 4.56.966 5.934 2.34l9.627 9.624 17.4-17.4-10.5-10.569c-5.514-5.55-9.93-7.35-17.628-7.35l-46.23-.003zm102.60042-65.04l-7.395 7.404v207.609h25.959v-58.809l7.386-10.983 65.166 69.792h12.825l11.724-11.445-72.417-74.886 66.777-51.801-11.841-11.793h-12.708l-66.912 52.161V35.99h-18.564zM574.5005 309c-3.852 0-6.0495.9105-8.8125 3.6735l-5.964 5.964c-2.7165 2.7165-3.651 4.971-3.651 8.8665v11.4975h-7.8405l-3.6675 3.606v8.073h11.508v63.3225h12.9795v-63.3225h14.931v-11.679h-14.931V328.341c0-.999.4215-2.0175 1.227-2.8245l3.6675-3.6675c.6855-.6855 1.8525-1.17 2.964-1.17h8.5005v-8.0295L581.723 309h-7.2225zm36.2875 30.015c-3.852 0-6.0495.9105-8.8125 3.6735l-5.964 5.964c-2.7165 2.7165-3.651 4.971-3.651 8.8665v37.965c0 3.8955.9345 6.15 3.651 8.8665l5.964 5.964c2.763 2.763 4.9605 3.6735 8.8125 3.6735h23.1165c3.852 0 6.0495-.9105 8.8125-3.6735l5.964-5.964c2.7165-2.7165 3.651-4.971 3.651-8.8665v-37.965c0-3.8955-.9345-6.15-3.651-8.8665l-5.964-5.964c-2.763-2.763-4.9605-3.6735-8.8125-3.6735H610.788zm27.3345 16.5135c.807.8055 1.2285 1.824 1.2285 2.823v36.2955c0 .999-.4215 2.0175-1.227 2.823l-3.6645 3.666c-.6855.687-1.8525 1.17-2.9655 1.17H613.2c-1.1115 0-2.2785-.483-2.964-1.17l-3.66-3.663c-.8055-.807-1.227-1.8255-1.227-2.8245V358.35c-.003-.999.4185-2.0175 1.2255-2.8245l3.666-3.666c.6855-.6855 1.8525-1.1685 2.9655-1.1685h18.2895c1.1115 0 2.2785.483 2.9655 1.17l3.6615 3.6675zm59.527-16.5135c-2.73 0-5.313-.0855-7.8075 1.8195l-11.9805 9.1485-1.9335-10.968h-10.7265v74.97h12.9795v-49.992l17.2395-12.5445c.948-.69 2.0805-.738 2.769-.738h5.0025V339.015h-5.5425zm75.148-30.024L740.105 410.4435l7.65 3.5565h5.925l10.5495-33.4275h39.306L814.0685 414h5.9265l7.65-3.5565-32.676-101.4525h-22.1715zm26.7 58.758H768.269l14.4345-45.9405h2.334l14.46 45.9405zm152.032-58.7565l-21.7275 92.19h-2.781l-20.3445-92.19h-22.404l-20.4165 92.19h-2.826l-21.609-92.19h-5.982l-7.5915 3.54L851.508 414h21.846l21.5265-92.1885h1.269L917.5965 414h21.846l25.6605-101.4675-7.5915-3.54h-5.982zm44.4715 0c-4.809 0-7.203.9915-10.8525 4.641l-8.3925 8.394c-3.351 3.351-4.4955 6.1125-4.4955 11.202v8.808c0 5.379 1.866 8.403 6.2535 10.647l46.0755 23.544c1.8795.9585 2.754 2.436 2.754 4.104v8.9655c0 1.4865-.4815 2.6565-1.785 3.96l-6.2775 6.2775c-.9045.9045-2.679 1.641-4.3125 1.641H972.262v8.91l4.029 3.9105h38.6775c5.937 0 10.6995-1.9575 14.13-5.388l6.2775-6.2775c4.3485-4.3485 5.853-7.9635 5.853-13.032v-9.2355c0-6.531-3.1755-11.6865-10.203-15.267l-42.2535-21.4185c-1.5945-.8085-2.6265-2.3325-2.6265-3.8325v-5.7c0-1.482.471-2.6475 1.752-3.9615l6.225-6.39c.8955-.9195 2.673-1.6695 4.3155-1.6695h38.169v-8.9115l-4.029-3.9195-36.5775-.0015z" fill="#4A4A4A"/></g></svg>