<svg width="2310" height="450" viewBox="0 0 2310 450" xmlns="http://www.w3.org/2000/svg" xmlns:xlink="http://www.w3.org/1999/xlink"><title>Elastic CI Stack for AWS</title><defs><path d="M249.063 248.773H496.81L372.903 1.005 249.03 248.708l-.174-.35-.033.066L124.606.032.214 248.772H248.65L124.463 497.1h248.784L249.063 248.773z" id="a"/><path d="M216.49 217.217h215.344L324.134 1.702 216.46 217.16l-.15-.304-.03.057L108.31.856.186 217.216H216.13l-107.944 216h216.247l-107.943-216z" id="c"/></defs><g fill="none" fill-rule="evenodd"><g transform="translate(-20 -37)"><mask id="b" fill="#fff"><use xlink:href="#a"/></mask><ellipse stroke="#A4D426" stroke-width="10" stroke-linejoin="round" mask="url(#b)" cx="248.986" cy="249.989" rx="209.184" ry="209.148"/></g><g transform="translate(12 -6)"><mask id="d" fill="#fff"><use xlink:href="#c"/></mask><ellipse stroke="#A4D426" stroke-width="10" stroke-linejoin="round" mask="url(#d)" cx="216.423" cy="218.275" rx="181.826" ry="181.922"/></g><g stroke-width="10" stroke="#4A4A4A" stroke-linejoin="round"><path d="M243 226v80l60 20v-80z"/><path d="M303 246l-60-20 60-20 60 20z"/><path d="M363 226v80l-60 20v-80zM168 101v80l60 20v-80z"/><path d="M228 121l-60-20 60-20 60 20z"/><path d="M288 101v80l-60 20v-80zM93 226v80l60 20v-80z"/><path d="M153 246l-60-20 60-20 60 20z"/><path d="M213 226v80l-60 20v-80z"/></g><path d="M588.03 40.985c-7.77 0-12.12 1.803-17.672 7.356l-11.982 11.983c-5.484 5.484-7.323 9.92-7.323 17.757v135.84c0 7.84 1.84 12.276 7.323 17.76l11.982 11.982c5.553 5.553 9.906 7.335 17.676 7.335h79.81l9.146-9.13v-16.493h-82.377c-2.226 0-4.596-.98-5.976-2.36l-7.386-7.393c-1.613-1.613-2.474-3.695-2.474-5.7v-51.095h81.648V133.18h-81.648V82.074c0-2.004.864-4.086 2.478-5.7l7.38-7.383c1.38-1.38 3.75-2.36 5.976-2.36h82.383V50.134l-9.15-9.147-79.812-.003zm119.81-5.034l-7.396 7.405V213.94c-.003 8.272 2.154 12.853 8.448 19.01l10.776 10.787c5.607 5.418 9.978 7.263 17.628 7.263H758.5v-23.274h-16.314c-2.45 0-4.644-1.182-5.83-2.298l-7.508-7.57c-1.518-1.43-2.442-3.536-2.445-5.57V35.95H707.84zm77.415 65.08l-7.413 7.212v16.143h65.643c2.223 0 4.557.966 5.928 2.34l8.676 8.676c1.61 1.612 2.456 3.65 2.456 5.647v18.036H808.13c-7.698 0-12.087 1.81-17.625 7.31l-13.554 13.474c-5.453 5.42-7.33 9.936-7.33 17.733v16.365c0 7.79 1.868 12.3 7.3 17.733l11.93 11.928c5.525 5.526 9.92 7.347 17.624 7.347h23.532c6.4 0 11.205-1.08 17.05-3.846l14.024-6.636 1.848 10.483h23.59v-111.58c0-7.79-1.87-12.3-7.303-17.732l-13.284-13.286c-5.525-5.526-9.92-7.347-17.624-7.347l-63.05.003zm75.303 113.382l-25.68 12.12c-1.455.687-3.216 1.08-4.995 1.08h-18.58c-2.222 0-4.556-.966-5.927-2.34l-7.338-7.34c-1.61-1.615-2.457-3.652-2.457-5.65v-12.98c0-2.002.85-4.045 2.47-5.656l8.937-8.883c1.374-1.365 3.705-2.325 5.925-2.325h47.65l-.004 31.974zm83.298-113.382c-7.704 0-12.1 1.82-17.625 7.344l-11.927 11.928c-5.433 5.433-7.302 9.942-7.302 17.733v12.13c0 8.276 3.352 13.727 10.588 17.414l63.777 32.48c2.415 1.23 3.912 3.675 3.912 6.027v6.207c.003 1.998-.84 4.035-2.454 5.65l-7.33 7.33c-1.37 1.372-3.704 2.338-5.927 2.338h-62.562v16.143l7.413 7.212h56.39c9.304 0 17.065-3.207 22.282-8.424l8.92-8.922c6.847-6.848 9.23-12.57 9.23-20.33v-9.093c0-9.915-5.212-18.378-16.198-23.976l-58.158-29.47c-2.418-1.225-3.92-3.673-3.92-6.028v-4.863c0-1.984.82-4.003 2.4-5.623l7.277-7.46c1.366-1.402 3.718-2.395 5.96-2.395h56.072V108.24l-7.413-7.213-53.404.003zm102.055-34.452V101h-15.68l-7.335 7.212v16.146h23.016V214.1c0 7.79 1.87 12.3 7.3 17.733l11.928 11.928c5.53 5.39 9.837 7.243 17.622 7.243h14.364l7.464-7.116V227.75h-17.004c-2.226 0-4.56-.966-5.93-2.34l-7.33-7.335c-1.61-1.614-2.454-3.65-2.454-5.65v-88.064h32.724v-23.354h-32.724V66.584l-25.96-.006zm81.397-17.625V78.71h30.018V48.953h-30.018zm2.03 52.047v150h25.96V101h-25.96zm87.002.03c-7.705 0-12.1 1.82-17.626 7.347l-11.928 11.928c-5.433 5.433-7.302 9.942-7.302 17.733v75.93c0 7.79 1.87 12.3 7.302 17.733l11.928 11.93c5.526 5.525 9.92 7.346 17.625 7.346h46.232c7.704 0 12.1-1.82 17.625-7.347l10.54-10.54-17.437-17.436-9.633 9.624c-1.374 1.37-3.708 2.337-5.934 2.337h-36.573c-2.226 0-4.56-.966-5.93-2.34l-7.333-7.335c-1.61-1.614-2.454-3.65-2.454-5.65v-72.584c0-1.998.843-4.035 2.454-5.65l7.332-7.33c1.37-1.372 3.704-2.338 5.927-2.338h36.58c2.225 0 4.56.966 5.933 2.34l9.627 9.624 17.4-17.4-10.5-10.57c-5.514-5.55-9.93-7.35-17.628-7.35l-46.23-.002zm204.91-60.045c-7.772 0-12.104 1.818-17.67 7.35l-24.776 24.627c-5.505 5.472-7.326 9.93-7.326 17.763v110.553c0 7.833 1.82 12.29 7.326 17.763l24.777 24.628c5.566 5.532 9.898 7.332 17.67 7.332h53.134c7.773 0 12.105-1.8 17.67-7.332l23.634-23.49-19.455-19.455-22.455 22.302c-1.374 1.365-3.732 2.352-5.967 2.352h-39.99c-2.234 0-4.592-.987-5.966-2.352l-20.172-20.034c-1.63-1.616-2.487-3.707-2.487-5.705V94.712c0-2 .858-4.092 2.487-5.71l20.157-20.02c1.373-1.366 3.73-2.353 5.966-2.353h40c2.234 0 4.592.986 5.966 2.35l22.464 22.306 19.4-19.51-23.585-23.44c-5.564-5.533-9.896-7.35-17.67-7.35h-53.13zm132.07-.003l-9.15 9.147v200.864h27.75V40.98l-18.6.002zm155.752.003c-9.618 0-14.406 1.983-21.705 9.282l-16.785 16.788c-6.702 6.702-8.99 12.225-8.99 22.404v17.615c0 10.758 3.73 16.806 12.506 21.294l92.15 47.087c3.76 1.917 5.51 4.872 5.51 8.208v17.93c0 2.974-.964 5.314-3.57 7.92l-12.556 12.556c-1.81 1.81-5.358 3.283-8.625 3.283h-85.413v17.82l8.058 7.82h77.355c11.874 0 21.4-3.914 28.26-10.775l12.555-12.555c8.697-8.697 11.706-15.927 11.706-26.064v-18.472c0-13.062-6.35-23.373-20.406-30.534l-84.507-42.837c-3.19-1.617-5.253-4.665-5.253-7.665v-11.4c0-2.964.942-5.295 3.504-7.923l12.45-12.78c1.79-1.84 5.346-3.34 8.63-3.34h76.34V48.827l-8.06-7.84-73.154-.002zm125.085 25.593V101h-15.68l-7.336 7.212v16.146h23.017V214.1c0 7.79 1.87 12.3 7.3 17.733l11.927 11.928c5.53 5.39 9.837 7.243 17.622 7.243h14.364l7.464-7.116V227.75h-17.004c-2.226 0-4.56-.966-5.93-2.34l-7.33-7.335c-1.61-1.614-2.454-3.65-2.454-5.65v-88.064h32.724v-23.354h-32.724V66.584l-25.96-.006zm90.568 34.452l-7.413 7.212v16.143h65.643c2.223 0 4.557.966 5.928 2.34l8.676 8.676c1.61 1.612 2.456 3.65 2.456 5.647v18.036H1947.6c-7.698 0-12.087 1.81-17.625 7.31l-13.554 13.474c-5.453 5.42-7.33 9.936-7.33 17.733v16.365c0 7.79 1.868 12.3 7.3 17.733l11.93 11.928c5.525 5.526 9.92 7.347 17.624 7.347h23.532c6.4 0 11.205-1.08 17.05-3.846l14.024-6.636 1.848 10.483h23.59v-111.58c0-7.79-1.87-12.3-7.303-17.732l-13.284-13.286c-5.525-5.526-9.92-7.347-17.624-7.347l-63.05.003zm75.303 113.382l-25.68 12.12c-1.455.687-3.216 1.08-4.995 1.08h-18.58c-2.222 0-4.556-.966-5.927-2.34l-7.338-7.34c-1.61-1.615-2.457-3.652-2.457-5.65v-12.98c0-2.002.85-4.045 2.47-5.656l8.937-8.883c1.374-1.365 3.705-2.325 5.925-2.325h47.65l-.004 31.974zm83.757-113.382c-7.704 0-12.1 1.82-17.625 7.347l-11.928 11.928c-5.433 5.433-7.302 9.942-7.302 17.733v75.93c0 7.79 1.87 12.3 7.302 17.733l11.928 11.93c5.526 5.525 9.92 7.346 17.625 7.346h46.233c7.704 0 12.1-1.82 17.625-7.347l10.54-10.54-17.437-17.436-9.633 9.624c-1.374 1.37-3.708 2.337-5.934 2.337h-36.574c-2.226 0-4.56-.966-5.93-2.34l-7.333-7.335c-1.61-1.614-2.454-3.65-2.454-5.65v-72.584c0-1.998.842-4.035 2.453-5.65l7.332-7.33c1.37-1.372 3.705-2.338 5.928-2.338h36.58c2.225 0 4.56.966 5.933 2.34l9.627 9.624 17.4-17.4-10.5-10.57c-5.514-5.55-9.93-7.35-17.628-7.35l-46.23-.002zm102.6-65.04l-7.395 7.404v207.61h25.96v-58.81l7.385-10.983 65.166 69.793h12.826l11.724-11.445-72.417-74.886 66.777-51.8-11.84-11.794h-12.71l-66.91 52.16V35.99h-18.565zM574.5 309c-3.85 0-6.05.91-8.812 3.674l-5.964 5.964c-2.716 2.716-3.65 4.97-3.65 8.866V339h-7.84l-3.67 3.607v8.073h11.51v63.323h12.98V350.68h14.93V339h-14.93v-10.66c0-.998.42-2.017 1.226-2.824l3.667-3.667c.686-.687 1.853-1.17 2.964-1.17h8.502v-8.03l-3.69-3.65h-7.22zm36.288 30.015c-3.852 0-6.05.91-8.812 3.674l-5.964 5.963c-2.717 2.716-3.65 4.97-3.65 8.866v37.964c0 3.896.933 6.15 3.65 8.867l5.964 5.965c2.763 2.763 4.96 3.673 8.812 3.673h23.116c3.852 0 6.05-.91 8.813-3.673l5.964-5.964c2.717-2.716 3.652-4.97 3.652-8.866V357.52c0-3.896-.935-6.15-3.65-8.867l-5.965-5.964c-2.763-2.764-4.96-3.675-8.813-3.675H610.79zm27.334 16.514c.808.804 1.23 1.822 1.23 2.82v36.297c0 1-.423 2.017-1.228 2.823l-3.664 3.666c-.686.687-1.853 1.17-2.966 1.17H613.2c-1.112 0-2.28-.483-2.964-1.17l-3.66-3.663c-.806-.807-1.227-1.826-1.227-2.825V358.35c-.004-1 .418-2.018 1.224-2.825l3.667-3.666c.686-.686 1.853-1.17 2.966-1.17h18.29c1.11 0 2.278.484 2.965 1.17l3.662 3.668zm59.528-16.515c-2.73 0-5.313-.085-7.808 1.82l-11.98 9.148-1.934-10.968h-10.726v74.97h12.98v-49.992l17.238-12.544c.95-.69 2.08-.74 2.77-.74h5.002v-11.695h-5.543zm75.147-30.024l-32.692 101.454 7.65 3.556h5.925l10.55-33.427h39.305L814.068 414h5.927l7.65-3.556L794.97 308.99h-22.173zm26.7 58.76H768.27l14.433-45.942h2.334l14.46 45.94zm152.033-58.757l-21.728 92.19h-2.78l-20.346-92.19h-22.404l-20.416 92.19h-2.826l-21.61-92.19h-5.98l-7.593 3.54L851.507 414h21.847l21.526-92.188h1.27L917.596 414h21.846l25.66-101.467-7.59-3.54h-5.984zm44.47 0c-4.808 0-7.202.99-10.852 4.64l-8.392 8.395c-3.35 3.35-4.496 6.112-4.496 11.2v8.81c0 5.378 1.866 8.403 6.254 10.647l46.076 23.544c1.88.957 2.754 2.435 2.754 4.103v8.965c0 1.487-.482 2.657-1.785 3.96l-6.28 6.278c-.904.904-2.678 1.64-4.312 1.64h-42.706v8.91l4.03 3.91h38.676c5.938 0 10.7-1.956 14.13-5.387l6.278-6.278c4.35-4.35 5.853-7.964 5.853-13.032v-9.236c0-6.53-3.177-11.686-10.204-15.267l-42.254-21.418c-1.594-.81-2.626-2.334-2.626-3.834v-5.7c0-1.482.47-2.647 1.752-3.96l6.225-6.39c.895-.92 2.673-1.67 4.315-1.67h38.17v-8.912l-4.03-3.92-36.577-.002z" fill="#4A4A4A"/></g></svg>